<?xml version="1.0" encoding="utf-8"?>
<!-- Generator: Adobe Illustrator 12.0.0, SVG Export Plug-In . SVG Version: 6.00 Build 51448)  -->
<!DOCTYPE svg PUBLIC "-//W3C//DTD SVG 1.1//EN" "http://www.w3.org/Graphics/SVG/1.1/DTD/svg11.dtd" [
	<!ENTITY ns_svg "http://www.w3.org/2000/svg">
	<!ENTITY ns_xlink "http://www.w3.org/1999/xlink">
]>
<svg  version="1.1" id="レイヤー_1" xmlns="&ns_svg;" xmlns:xlink="&ns_xlink;" width="297.721" height="300"
	 viewBox="0 0 297.721 300" overflow="visible" enable-background="new 0 0 297.721 300" xml:space="preserve">
<g id="レイヤー_1_1_" display="none">
	<g display="inline">
		<path fill="#B3B3B3" d="M150,0c-0.412,0-0.825,0.002-1.236,0.005c-17.234,0.14-33.782,3.186-49.165,8.673
			c-2.698,0.962-5.361,2-7.985,3.11c-1.179,0.499-2.351,1.012-3.515,1.54c-5.754,2.61-11.313,5.572-16.65,8.86
			c-1.798,1.107-3.569,2.25-5.314,3.43c-1.771,1.197-3.517,2.431-5.234,3.701c-7.347,5.434-14.187,11.528-20.42,18.186
			c-5.428,5.797-10.399,12.026-14.86,18.629c-5.393,7.979-10.034,16.506-13.83,25.479C4.94,107.802,0.854,125.445,0.12,143.95
			c0,0.005,0,0.006,0,0.011c-0.009,0.219-0.018,0.437-0.024,0.656c-0.002,0.065-0.005,0.139-0.007,0.204
			c-0.009,0.256-0.018,0.513-0.024,0.769c-0.002,0.095-0.005,0.187-0.008,0.282c-0.003,0.119-0.006,0.237-0.009,0.356
			C0.016,147.48,0,148.741,0,150c0,0.108,0,0.217,0,0.326c0,0.136,0,0.265,0.001,0.4c0,0.026,0,0.053,0,0.08
			c0,0.057,0.001,0.105,0.001,0.162s0.001,0.116,0.001,0.174c0,0.025,0,0.041,0,0.065c0,0.042,0,0.083,0.001,0.124
			s0,0.081,0.001,0.121c0,0.029,0,0.061,0.001,0.09c0,0.051,0.001,0.1,0.001,0.15c0,0.049,0.001,0.099,0.002,0.146
			c0,0.035,0,0.057,0.001,0.092c0,0.049,0.001,0.1,0.002,0.148c0,0.035,0.001,0.059,0.001,0.094c0,0.045,0.001,0.088,0.002,0.133
			c0,0.039,0.001,0.068,0.001,0.109c0.001,0.047,0.001,0.096,0.002,0.143c0,0.03,0.001,0.066,0.001,0.098
			c0.001,0.051,0.002,0.102,0.003,0.152c0,0.024,0.001,0.063,0.001,0.088c0.001,0.053,0.002,0.107,0.003,0.16
			c0,0.024,0.001,0.055,0.001,0.08c0.001,0.063,0.002,0.127,0.004,0.189c0,0.016,0.002,0.033,0.002,0.048
			c0.001,0.063,0.003,0.127,0.004,0.188c0,0.017,0.001,0.037,0.001,0.053c0.001,0.061,0.003,0.121,0.005,0.182
			c0,0.02,0.001,0.039,0.001,0.061c0.001,0.063,0.003,0.125,0.005,0.188c0,0.016,0,0.035,0.001,0.051
			c0.002,0.063,0.003,0.125,0.005,0.188c0,0.021,0.001,0.03,0.001,0.052c0.001,0.063,0.003,0.12,0.005,0.182
			c0,0.021,0.001,0.039,0.001,0.061c0.002,0.059,0.004,0.117,0.005,0.176c0.001,0.021,0.001,0.044,0.002,0.064
			c0.002,0.056,0.004,0.111,0.007,0.166c0,0.025,0.001,0.05,0.002,0.074c0.002,0.055,0.004,0.106,0.006,0.162
			c0,0.024,0.001,0.053,0.002,0.078c0.002,0.053,0.004,0.104,0.006,0.157c0.001,0.03,0.001,0.053,0.003,0.082
			c0.002,0.062,0.004,0.126,0.007,0.187c0,0.016,0.001,0.034,0.001,0.049c0.002,0.061,0.005,0.117,0.007,0.178
			c0.001,0.025,0.002,0.041,0.003,0.066c0.002,0.063,0.006,0.129,0.009,0.192c0,0.017,0.001,0.026,0.001,0.041
			c0.003,0.071,0.006,0.142,0.009,0.213c0,0.011,0,0.015,0.001,0.024c0.003,0.078,0.007,0.156,0.01,0.234v0.002
			c0.01,0.231,0.021,0.465,0.033,0.697c0,0.012,0,0.012,0.001,0.021c0.874,17.89,4.883,34.955,11.488,50.66
			c3.758,8.935,8.355,17.428,13.695,25.385c5.341,7.953,11.422,15.369,18.146,22.146c6.724,6.778,14.09,12.916,22,18.318
			c7.91,5.399,16.364,10.063,25.262,13.892c17.796,7.656,37.372,11.967,57.932,12.141l0.171-19.998
			c-17.437-0.147-34.326-3.687-50.2-10.514c-7.636-3.283-15-7.334-21.886-12.039c-6.828-4.66-13.248-10.006-19.082-15.886
			s-11.12-12.342-15.729-19.208c-4.65-6.926-8.642-14.324-11.866-21.99C23.4,184.406,20,167.466,20,150
			c0-17.56,3.434-34.582,10.208-50.596c3.256-7.698,7.288-15.126,11.981-22.074c4.654-6.888,9.998-13.366,15.887-19.254
			c5.888-5.888,12.365-11.232,19.254-15.886c6.949-4.694,14.376-8.726,22.073-11.982C115.418,23.434,132.442,20,150,20
			c11.464,0,22.828,1.488,33.777,4.426c10.613,2.848,20.853,7.056,30.429,12.508c18.896,10.758,34.939,26.222,46.399,44.72
			l17.002-10.532c-11.981-19.342-28.234-35.756-47.444-47.927l-0.011-0.006c-0.156-0.1-0.315-0.2-0.475-0.299
			c-0.023-0.015-0.051-0.032-0.074-0.047c-0.047-0.029-0.094-0.059-0.141-0.088c-0.036-0.022-0.071-0.044-0.107-0.067
			c-0.029-0.02-0.062-0.039-0.093-0.059c-7.396-4.612-15.227-8.6-23.411-11.886c-0.002,0-0.002-0.001-0.004-0.001
			c-0.272-0.11-0.54-0.216-0.814-0.325c-0.02-0.007-0.037-0.015-0.057-0.022c-0.058-0.022-0.119-0.047-0.177-0.07
			c-0.016-0.006-0.031-0.012-0.046-0.018c-0.184-0.071-0.36-0.141-0.542-0.211c-0.033-0.013-0.064-0.025-0.099-0.038
			c-0.049-0.019-0.089-0.035-0.139-0.054c-0.037-0.015-0.075-0.029-0.113-0.043c-0.044-0.017-0.083-0.032-0.128-0.049
			c-0.067-0.026-0.137-0.053-0.205-0.079c-0.034-0.014-0.063-0.025-0.101-0.039c-0.06-0.022-0.119-0.045-0.179-0.068
			c-0.031-0.012-0.063-0.023-0.094-0.035c-0.056-0.021-0.109-0.042-0.167-0.063c-0.03-0.012-0.056-0.021-0.087-0.033
			c-0.071-0.027-0.146-0.055-0.219-0.082c-0.014-0.005-0.02-0.008-0.033-0.013c-0.087-0.032-0.173-0.065-0.26-0.097
			c-0.018-0.006-0.029-0.011-0.047-0.017c-0.072-0.027-0.146-0.054-0.218-0.081c-0.019-0.007-0.035-0.013-0.054-0.02
			c-4.282-1.586-8.657-2.981-13.114-4.177c-1.544-0.414-3.099-0.805-4.661-1.17c-0.033-0.008-0.063-0.015-0.097-0.022
			c-0.055-0.013-0.108-0.025-0.163-0.038c-0.042-0.01-0.076-0.018-0.118-0.027c-0.045-0.01-0.089-0.021-0.134-0.031
			c-8.743-2.013-17.771-3.261-27.022-3.671c-0.004,0-0.008,0-0.012,0c-0.311-0.014-0.617-0.026-0.929-0.039
			c-0.016,0-0.031-0.001-0.048-0.001c-0.069-0.003-0.142-0.005-0.212-0.008c-0.01,0-0.021-0.001-0.03-0.001
			c-0.216-0.008-0.435-0.015-0.649-0.022c-0.025-0.001-0.051-0.001-0.076-0.002c-0.06-0.002-0.122-0.004-0.182-0.006
			c-0.03,0-0.063-0.001-0.093-0.002c-0.06-0.002-0.113-0.003-0.174-0.005c-0.041-0.001-0.083-0.002-0.124-0.003
			c-0.085-0.002-0.177-0.005-0.262-0.007c-0.045-0.001-0.091-0.002-0.136-0.003c-0.051-0.001-0.099-0.002-0.147-0.004
			c-0.046-0.001-0.092-0.002-0.138-0.003c-0.045-0.001-0.092-0.002-0.138-0.003c-0.057-0.001-0.109-0.002-0.165-0.003
			c-0.062-0.001-0.127-0.003-0.188-0.004c-0.063-0.001-0.127-0.002-0.188-0.004c-0.04,0-0.078-0.001-0.118-0.002
			c-0.056-0.001-0.106-0.002-0.161-0.003c-0.04,0-0.089-0.001-0.129-0.002c-0.061-0.001-0.119-0.002-0.179-0.003
			c-0.035,0-0.064-0.001-0.102-0.001c-0.091-0.001-0.181-0.002-0.271-0.003c-0.03,0-0.062-0.001-0.092-0.001
			c-0.064,0-0.129-0.001-0.192-0.002c-0.041,0-0.069-0.001-0.109-0.001c-0.063-0.001-0.127-0.001-0.189-0.002
			c-0.03,0-0.065,0-0.097-0.001c-0.093,0-0.188-0.001-0.279-0.002c-0.016,0-0.039,0-0.055,0c-0.074,0-0.151-0.001-0.228-0.001
			c-0.03,0-0.072,0-0.104,0c-0.064,0-0.131,0-0.196,0c-0.03,0-0.061,0-0.091,0C150.19,0,150.095,0,150,0L150,0L150,0z"/>
	</g>
</g>
<path fill="none" stroke="#F0037F" stroke-width="6" d="M150,0"/>
<path fill="none" stroke="#F0037F" stroke-width="6" d="M150,300"/>
<path fill="none" stroke="#F0037F" stroke-width="6" d="M201.303,9.046"/>
<path fill="none" stroke="#F0037F" stroke-width="6" d="M98.697,290.954"/>
<path fill="none" stroke="#F0037F" stroke-width="6" d="M246.418,35.093"/>
<path fill="none" stroke="#F0037F" stroke-width="6" d="M53.582,264.907"/>
<path fill="none" stroke="#F0037F" stroke-width="6" d="M279.903,75"/>
<path fill="none" stroke="#F0037F" stroke-width="6" d="M20.096,225"/>
<path fill="none" stroke="#F0037F" stroke-width="6" stroke-dasharray="20 255" d="M297.721,123.953"/>
<path fill="none" stroke="#F0037F" stroke-width="6" stroke-dasharray="20 255" d="M2.278,176.047"/>
<path fill="none" stroke="#F0037F" stroke-width="6" d="M297.721,176.047"/>
<path fill="none" stroke="#F0037F" stroke-width="6" d="M2.278,123.952"/>
<path fill="none" stroke="#F0037F" stroke-width="6" d="M279.903,225"/>
<path fill="none" stroke="#F0037F" stroke-width="6" d="M20.096,74.999"/>
<path fill="none" stroke="#F0037F" stroke-width="6" d="M246.418,264.906"/>
<path fill="none" stroke="#F0037F" stroke-width="6" d="M53.582,35.092"/>
<path fill="none" stroke="#F0037F" stroke-width="6" d="M201.303,290.953"/>
<path fill="none" stroke="#F0037F" stroke-width="6" d="M98.697,9.045"/>
<path fill="none" d="M2.278,176.047"/>
<line fill="none" stroke="#F0037F" stroke-width="6" x1="150" y1="280" x2="150" y2="300"/>
<line fill="none" stroke="#F0037F" stroke-width="6" x1="114.171" y1="274.997" x2="108.667" y2="294.191"/>
<line fill="none" stroke="#F0037F" stroke-width="6" x1="80.156" y1="261.82" x2="70.536" y2="277.215"/>
<line fill="none" stroke="#F0037F" stroke-width="6" x1="53.417" y1="237.012" x2="38.562" y2="250.387"/>
<line fill="none" stroke="#F0037F" stroke-width="6" x1="33.156" y1="207.035" x2="15.222" y2="215.781"/>
<line fill="none" stroke="#F0037F" stroke-width="6" x1="21.964" y1="172.623" x2="2.323" y2="176.086"/>
<line fill="none" stroke="#F0037F" stroke-width="6" x1="21.518" y1="136.542" x2="0.866" y2="134.372"/>
<line fill="none" stroke="#F0037F" stroke-width="6" x1="29.427" y1="101.332" x2="10.964" y2="93.873"/>
<line fill="none" stroke="#F0037F" stroke-width="6" x1="47.535" y1="69.992" x2="31.833" y2="57.725"/>
<line fill="none" stroke="#F0037F" stroke-width="6" x1="73.529" y1="44.795" x2="61.858" y2="28.73"/>
<line fill="none" stroke="#F0037F" stroke-width="6" x1="105.51" y1="27.814" x2="98.711" y2="9.135"/>
<line fill="none" stroke="#F0037F" stroke-width="6" x1="140.916" y1="20.15" x2="139.539" y2="0.457"/>
<line fill="none" stroke="#F0037F" stroke-width="6" x1="177.04" y1="22.824" x2="181.176" y2="3.368"/>
<line fill="none" stroke="#F0037F" stroke-width="6" x1="211.057" y1="35.212" x2="220.398" y2="17.643"/>
<line fill="none" stroke="#F0037F" stroke-width="6" x1="240.322" y1="56.513" x2="254.166" y2="42.177"/>
<line fill="none" stroke="#F0037F" stroke-width="6" x1="262.617" y1="85.024" x2="279.863" y2="75.067"/>
<line fill="none" stroke="#FFFFFF" stroke-width="2" x1="159.171" y1="18.854" x2="160.464" y2="0.365"/>
<line fill="none" stroke="#FFFFFF" stroke-width="2" x1="168.094" y1="21.258" x2="170.876" y2="1.459"/>
<line fill="none" stroke="#FFFFFF" stroke-width="2" x1="186.307" y1="23.385" x2="191.346" y2="5.811"/>
<line fill="none" stroke="#FFFFFF" stroke-width="2" x1="118.813" y1="296.723" x2="122.967" y2="277.18"/>
<line fill="none" stroke="#FFFFFF" stroke-width="2" x1="194.474" y1="27.809" x2="201.303" y2="9.045"/>
<line fill="none" stroke="#FFFFFF" stroke-width="2" x1="203.671" y1="29.452" x2="211.01" y2="12.967"/>
<line fill="none" stroke="#FFFFFF" stroke-width="2" x1="218.893" y1="39.747" x2="229.487" y2="22.792"/>
<line fill="none" stroke="#FFFFFF" stroke-width="2" x1="79.58" y1="282.441" x2="88.961" y2="264.798"/>
<line fill="none" stroke="#FFFFFF" stroke-width="2" x1="226.416" y1="44.822" x2="238.168" y2="28.646"/>
<line fill="none" stroke="#FFFFFF" stroke-width="2" x1="233.558" y1="50.419" x2="246.418" y2="35.092"/>
<line fill="none" stroke="#FFFFFF" stroke-width="2" x1="246.604" y1="63.016" x2="261.472" y2="49.629"/>
<line fill="none" stroke="#FFFFFF" stroke-width="2" x1="45.802" y1="257.9" x2="59.7" y2="243.508"/>
<line fill="none" stroke="#FFFFFF" stroke-width="2" x1="252.443" y1="69.962" x2="268.202" y2="57.65"/>
<line fill="none" stroke="#FFFFFF" stroke-width="2" x1="257.784" y1="77.298" x2="274.356" y2="66.12"/>
<line fill="none" stroke="#FFFFFF" stroke-width="2" x1="20.097" y1="224.999" x2="36.147" y2="215.732"/>
<line fill="none" stroke="#FFFFFF" stroke-width="2" x1="10.923" y1="206.189" x2="29.438" y2="198.71"/>
<path fill="none" stroke="#FFFFFF" stroke-width="2" d="M7.342,196.352"/>
<line fill="none" stroke="#FFFFFF" stroke-width="2" x1="4.456" y1="186.288" x2="22.608" y2="181.762"/>
<line fill="none" stroke="#FFFFFF" stroke-width="2" x1="0.822" y1="165.68" x2="20.703" y2="163.589"/>
<line fill="none" stroke="#FFFFFF" stroke-width="2" x1="0.092" y1="155.234" x2="20.087" y2="154.536"/>
<line fill="none" stroke="#FFFFFF" stroke-width="2" x1="0.092" y1="144.765" x2="20" y2="145.46"/>
<line fill="none" stroke="#FFFFFF" stroke-width="2" x1="2.279" y1="123.952" x2="21.518" y2="126.959"/>
<line fill="none" stroke="#FFFFFF" stroke-width="2" x1="4.456" y1="113.711" x2="23.837" y2="118.543"/>
<line fill="none" stroke="#FFFFFF" stroke-width="2" x1="7.342" y1="103.647" x2="26.339" y2="109.819"/>
<line fill="none" stroke="#FFFFFF" stroke-width="2" x1="15.182" y1="84.244" x2="33.133" y2="93"/>
<line fill="none" stroke="#FFFFFF" stroke-width="2" x1="20.097" y1="75" x2="37.402" y2="84.991"/>
<line fill="none" stroke="#FFFFFF" stroke-width="2" x1="25.645" y1="66.121" x2="42.215" y2="77.298"/>
<line fill="none" stroke="#FFFFFF" stroke-width="2" x1="38.529" y1="49.63" x2="53.392" y2="63.013"/>
<line fill="none" stroke="#FFFFFF" stroke-width="2" x1="45.802" y1="42.099" x2="59.697" y2="56.488"/>
<line fill="none" stroke="#FFFFFF" stroke-width="2" x1="53.583" y1="35.093" x2="66.113" y2="50.697"/>
<line fill="none" stroke="#FFFFFF" stroke-width="2" x1="70.513" y1="22.793" x2="81.104" y2="39.743"/>
<line fill="none" stroke="#FFFFFF" stroke-width="2" x1="79.58" y1="17.558" x2="88.96" y2="35.201"/>
<line fill="none" stroke="#FFFFFF" stroke-width="2" x1="88.99" y1="12.968" x2="96.713" y2="30.315"/>
<line fill="none" stroke="#FFFFFF" stroke-width="2" x1="108.655" y1="5.811" x2="114.159" y2="25.005"/>
<line fill="none" stroke="#FFFFFF" stroke-width="2" x1="118.814" y1="3.278" x2="122.968" y2="22.82"/>
<line fill="none" stroke="#FFFFFF" stroke-width="2" x1="129.125" y1="1.46" x2="131.481" y2="20.15"/>
<line fill="none" stroke="#FFFFFF" stroke-width="2" x1="150.001" y1="0" x2="150" y2="20"/>
<path fill="none" stroke="#FFFFFF" stroke-width="2" d="M150,300"/>
<path fill="none" stroke="#FFFFFF" stroke-width="2" d="M150.001,0"/>
<line fill="none" stroke="#FFFFFF" stroke-width="2" x1="140.932" y1="279.68" x2="139.537" y2="299.635"/>
<line fill="none" stroke="#FFFFFF" stroke-width="2" x1="131.906" y1="278.748" x2="129.124" y2="298.54"/>
<line fill="none" stroke="#FFFFFF" stroke-width="2" x1="105.526" y1="272.189" x2="98.697" y2="290.953"/>
<line fill="none" stroke="#FFFFFF" stroke-width="2" x1="96.016" y1="268.293" x2="88.99" y2="287.031"/>
<line fill="none" stroke="#FFFFFF" stroke-width="2" x1="47.556" y1="230.037" x2="31.799" y2="242.348"/>
<line fill="none" stroke="#FFFFFF" stroke-width="2" x1="42.214" y1="222.701" x2="25.645" y2="233.877"/>
<line fill="none" stroke="#FFFFFF" stroke-width="2" x1="26.333" y1="190.18" x2="7.342" y2="196.352"/>
<line fill="none" stroke="#FFFFFF" stroke-width="2" x1="73.588" y1="255.171" x2="61.833" y2="271.352"/>
<line fill="none" stroke="#FFFFFF" stroke-width="2" x1="66.438" y1="249.584" x2="53.582" y2="264.904"/>
<circle fill="none" cx="150" cy="150" r="130"/>
<rect x="163.965" y="23.385" fill="none" width="26.395" height="30.261"/>
<text transform="matrix(1 0 0 1 163.9641 41.4321)" font-family="'MS-Gothic'" font-size="21">12</text>
<g enable-background="new    ">
	<path fill="#FFFFFF" stroke="#FFFFFF" d="M168.476,41.268V34.87v-6.316h-2.461v-0.984c1.914,0,3.035-0.766,3.363-2.297h0.984
		v15.996H168.476z"/>
	<path fill="#FFFFFF" stroke="#FFFFFF" d="M183.816,39.709v1.559h-8.367v-1.313c1.258-2.352,2.816-4.594,4.676-6.727
		c1.039-1.203,1.559-2.461,1.559-3.773c0-0.93-0.246-1.641-0.738-2.133c-0.328-0.328-0.766-0.492-1.313-0.492
		c-0.438,0-0.875,0.219-1.313,0.656c-0.492,0.492-0.738,1.504-0.738,3.035h-1.805c0.055-1.969,0.52-3.391,1.395-4.266
		c0.656-0.656,1.531-0.984,2.625-0.984c1.039,0,1.914,0.355,2.625,1.066c0.766,0.766,1.148,1.832,1.148,3.199
		c0,1.586-0.738,3.227-2.215,4.922c-1.586,1.805-2.898,3.555-3.938,5.25H183.816z"/>
</g>
<rect x="131.481" y="20.15" fill="none" width="26.395" height="30.261"/>
<text transform="matrix(1 0 0 1 131.4807 38.1968)" font-family="'MS-Gothic'" font-size="21">11</text>
<g enable-background="new    ">
	<path fill="#FFFFFF" stroke="#FFFFFF" d="M135.992,38.033v-6.398v-6.316h-2.461v-0.984c1.914,0,3.035-0.766,3.363-2.297h0.984
		v15.996H135.992z"/>
	<path fill="#FFFFFF" stroke="#FFFFFF" d="M146.492,38.033v-6.398v-6.316h-2.461v-0.984c1.914,0,3.035-0.766,3.363-2.297h0.984
		v15.996H146.492z"/>
</g>
<rect x="99.077" y="27.951" fill="none" width="26.395" height="30.261"/>
<text transform="matrix(1 0 0 1 99.0769 45.9985)" font-family="'MS-Gothic'" font-size="21">10</text>
<g enable-background="new    ">
	<path fill="#FFFFFF" stroke="#FFFFFF" d="M103.589,45.834v-6.398V33.12h-2.461v-0.984c1.914,0,3.035-0.766,3.363-2.297h0.984
		v15.996H103.589z"/>
	<path fill="#FFFFFF" stroke="#FFFFFF" d="M112.202,30.987c0.766-0.766,1.613-1.148,2.543-1.148s1.777,0.383,2.543,1.148
		c1.313,1.313,1.969,3.582,1.969,6.809c0,3.281-0.656,5.578-1.969,6.891c-0.766,0.766-1.613,1.148-2.543,1.148
		s-1.777-0.383-2.543-1.148c-1.313-1.313-1.969-3.609-1.969-6.891C110.233,34.569,110.889,32.299,112.202,30.987z M115.811,31.889
		c-0.328-0.328-0.684-0.492-1.066-0.492s-0.738,0.164-1.066,0.492c-1.039,1.094-1.559,3.063-1.559,5.906
		c0,2.953,0.52,4.949,1.559,5.988c0.328,0.328,0.684,0.492,1.066,0.492s0.738-0.164,1.066-0.492
		c1.039-1.039,1.559-3.035,1.559-5.988C117.37,34.897,116.85,32.928,115.811,31.889z"/>
</g>
<rect x="72.039" y="44.331" fill="none" width="26.395" height="30.261"/>
<text transform="matrix(1 0 0 1 72.0383 62.3774)" font-family="'MS-Gothic'" font-size="21">9</text>
<g enable-background="new    ">
	<path fill="#FFFFFF" stroke="#FFFFFF" d="M81.308,54.01c0,3.336-0.738,5.742-2.215,7.219c-0.656,0.656-1.477,0.984-2.461,0.984
		c-0.82,0-1.477-0.246-1.969-0.738c-0.875-0.875-1.34-1.859-1.395-2.953h1.887c0,0.711,0.246,1.313,0.738,1.805
		c0.219,0.219,0.52,0.328,0.902,0.328s0.738-0.164,1.066-0.492c0.82-0.82,1.34-2.543,1.559-5.168
		c-0.602,1.258-1.531,1.887-2.789,1.887c-0.82,0-1.559-0.328-2.215-0.984c-0.875-0.875-1.313-2.324-1.313-4.348
		c0-1.859,0.492-3.281,1.477-4.266c0.711-0.711,1.531-1.066,2.461-1.066s1.723,0.328,2.379,0.984
		C80.679,48.459,81.308,50.729,81.308,54.01z M76.96,47.694c-0.328,0-0.684,0.191-1.066,0.574c-0.602,0.602-0.902,1.695-0.902,3.281
		c0,1.695,0.273,2.816,0.82,3.363c0.328,0.328,0.711,0.492,1.148,0.492c0.492,0,0.93-0.191,1.313-0.574
		c0.656-0.656,0.984-1.641,0.984-2.953c0-1.75-0.355-2.98-1.066-3.691C77.863,47.858,77.452,47.694,76.96,47.694z"/>
</g>
<rect x="46.393" y="68.046" fill="none" width="13.102" height="19.818"/>
<text transform="matrix(1 0 0 1 46.3928 86.0933)" font-family="'MS-Gothic'" font-size="21">8</text>
<g enable-background="new    ">
	<path fill="#FFFFFF" stroke="#FFFFFF" d="M54.514,78.546c0.875,0.875,1.313,1.805,1.313,2.789c0,1.477-0.438,2.652-1.313,3.527
		c-0.711,0.711-1.695,1.066-2.953,1.066s-2.242-0.355-2.953-1.066c-0.875-0.875-1.313-2.051-1.313-3.527
		c0-0.984,0.438-1.914,1.313-2.789c0.383-0.383,0.82-0.656,1.313-0.82c-0.438-0.164-0.793-0.383-1.066-0.656
		c-0.766-0.766-1.148-1.668-1.148-2.707v-0.082c0-1.367,0.41-2.461,1.23-3.281c0.711-0.711,1.586-1.066,2.625-1.066
		s1.914,0.355,2.625,1.066c0.82,0.82,1.23,1.914,1.23,3.281v0.082c0,1.039-0.383,1.941-1.148,2.707
		c-0.273,0.273-0.629,0.492-1.066,0.656C53.694,77.89,54.131,78.164,54.514,78.546z M50.002,79.121
		c-0.547,0.547-0.82,1.285-0.82,2.215c0,1.094,0.273,1.914,0.82,2.461c0.438,0.438,0.957,0.656,1.559,0.656s1.121-0.219,1.559-0.656
		c0.547-0.547,0.82-1.367,0.82-2.461c0-0.93-0.273-1.668-0.82-2.215c-0.438-0.438-0.957-0.656-1.559-0.656
		S50.44,78.683,50.002,79.121z M50.166,71.984c-0.438,0.438-0.656,1.203-0.656,2.297v0.082c0,0.984,0.219,1.695,0.656,2.133
		c0.383,0.383,0.848,0.574,1.395,0.574s1.012-0.191,1.395-0.574c0.438-0.438,0.656-1.148,0.656-2.133v-0.082
		c0-1.094-0.219-1.859-0.656-2.297c-0.383-0.383-0.848-0.574-1.395-0.574S50.549,71.601,50.166,71.984z"/>
</g>
<rect x="31.281" y="96.564" fill="none" width="13.102" height="19.818"/>
<text transform="matrix(1 0 0 1 31.281 114.6118)" font-family="'MS-Gothic'" font-size="21">7</text>
<g enable-background="new    ">
	<path fill="#FFFFFF" stroke="#FFFFFF" d="M34.644,114.448l4.02-14.438h-6.07v-1.559h7.793v1.723l-3.855,14.273H34.644z"/>
</g>
<rect x="22.484" y="126.959" fill="none" width="13.102" height="19.818"/>
<text transform="matrix(1 0 0 1 22.4841 145.0063)" font-family="'MS-Gothic'" font-size="21">6</text>
<g enable-background="new    ">
	<path fill="#FFFFFF" stroke="#FFFFFF" d="M29.211,130.733c-0.219-0.219-0.492-0.328-0.82-0.328c-0.438,0-0.82,0.164-1.148,0.492
		c-0.93,0.93-1.504,2.762-1.723,5.496c0.766-1.258,1.695-1.887,2.789-1.887c0.82,0,1.559,0.328,2.215,0.984
		c0.875,0.875,1.313,2.215,1.313,4.02c0,1.969-0.465,3.418-1.395,4.348c-0.656,0.656-1.504,0.984-2.543,0.984
		c-0.93,0-1.777-0.383-2.543-1.148c-1.148-1.148-1.723-3.363-1.723-6.645c0-3.227,0.793-5.633,2.379-7.219
		c0.656-0.656,1.477-0.984,2.461-0.984c0.82,0,1.477,0.246,1.969,0.738c0.766,0.766,1.176,1.75,1.23,2.953h-1.887
		C29.785,131.717,29.594,131.116,29.211,130.733z M26.668,136.557c-0.656,0.656-0.984,1.531-0.984,2.625
		c0,1.695,0.383,2.926,1.148,3.691c0.328,0.328,0.711,0.492,1.148,0.492s0.848-0.191,1.23-0.574
		c0.492-0.492,0.738-1.586,0.738-3.281c0-1.477-0.273-2.488-0.82-3.035c-0.328-0.328-0.711-0.492-1.148-0.492
		C27.488,135.983,27.051,136.174,26.668,136.557z"/>
</g>
<rect x="24.417" y="163.754" fill="none" width="13.101" height="19.816"/>
<text transform="matrix(1 0 0 1 24.4172 181.8008)" font-family="'MS-Gothic'" font-size="21">5</text>
<g enable-background="new    ">
	<path fill="#FFFFFF" stroke="#FFFFFF" d="M28.027,179.586c0.328,0.328,0.793,0.492,1.395,0.492c0.492,0,0.957-0.219,1.395-0.656
		c0.656-0.656,0.984-1.75,0.984-3.281c0-1.422-0.273-2.406-0.82-2.953c-0.328-0.328-0.711-0.492-1.148-0.492
		c-0.984,0-1.777,0.574-2.379,1.723h-1.641l0.492-8.777h7.055v1.559h-5.496l-0.328,5.332c0.711-0.82,1.613-1.23,2.707-1.23
		c0.82,0,1.531,0.301,2.133,0.902c0.875,0.875,1.313,2.188,1.313,3.938c0,1.859-0.52,3.309-1.559,4.348
		c-0.766,0.766-1.695,1.148-2.789,1.148c-1.148,0-2.051-0.328-2.707-0.984c-0.82-0.82-1.258-1.996-1.313-3.527h1.887
		C27.206,178.219,27.48,179.039,28.027,179.586z"/>
</g>
<rect x="36.147" y="194.238" fill="none" width="13.102" height="19.818"/>
<text transform="matrix(1 0 0 1 36.1472 212.2852)" font-family="'MS-Gothic'" font-size="21">4</text>
<g enable-background="new    ">
	<path fill="#FFFFFF" stroke="#FFFFFF" d="M42.3,212.121v-1.887v-1.887h-5.496v-1.559l5.496-10.664h1.887v10.664h1.723v1.559h-1.723
		v3.773H42.3z M42.3,206.789v-7.219l-3.691,7.219H42.3z"/>
</g>
<rect x="56.031" y="222.727" fill="none" width="13.102" height="19.816"/>
<text transform="matrix(1 0 0 1 56.031 240.7715)" font-family="'MS-Gothic'" font-size="21">3</text>
<g enable-background="new    ">
	<path fill="#FFFFFF" stroke="#FFFFFF" d="M59.558,238.475c0.383,0.383,0.902,0.574,1.559,0.574c0.547,0,1.066-0.246,1.559-0.738
		s0.738-1.313,0.738-2.461c0-0.875-0.301-1.613-0.902-2.215c-0.438-0.438-1.094-0.629-1.969-0.574v-1.395
		c0.875-0.055,1.531-0.301,1.969-0.738s0.656-1.094,0.656-1.969c0-1.094-0.246-1.887-0.738-2.379
		c-0.328-0.328-0.738-0.492-1.23-0.492s-0.902,0.164-1.23,0.492c-0.547,0.547-0.848,1.367-0.902,2.461h-1.805
		c0.055-1.422,0.52-2.57,1.395-3.445c0.656-0.656,1.504-0.984,2.543-0.984c1.094,0,1.969,0.328,2.625,0.984
		c0.766,0.766,1.148,1.777,1.148,3.035c0,1.148-0.301,2.023-0.902,2.625c-0.547,0.547-1.066,0.902-1.559,1.066
		c0.711,0.219,1.258,0.52,1.641,0.902c0.766,0.766,1.148,1.695,1.148,2.789c0,1.422-0.438,2.57-1.313,3.445
		c-0.766,0.766-1.723,1.148-2.871,1.148c-1.258,0-2.242-0.355-2.953-1.066c-0.82-0.82-1.23-2.051-1.23-3.691h1.887
		C58.765,237.053,59.011,237.928,59.558,238.475z"/>
</g>
<rect x="81.939" y="242.002" fill="none" width="13.102" height="19.818"/>
<text transform="matrix(1 0 0 1 81.9387 260.0488)" font-family="'MS-Gothic'" font-size="21">2</text>
<g enable-background="new    ">
	<path fill="#FFFFFF" stroke="#FFFFFF" d="M91.29,258.326v1.559h-8.367v-1.313c1.258-2.352,2.816-4.594,4.676-6.727
		c1.039-1.203,1.559-2.461,1.559-3.773c0-0.93-0.246-1.641-0.738-2.133c-0.328-0.328-0.766-0.492-1.313-0.492
		c-0.438,0-0.875,0.219-1.313,0.656c-0.492,0.492-0.738,1.504-0.738,3.035h-1.805c0.055-1.969,0.52-3.391,1.395-4.266
		c0.656-0.656,1.531-0.984,2.625-0.984c1.039,0,1.914,0.355,2.625,1.066c0.766,0.766,1.148,1.832,1.148,3.199
		c0,1.586-0.738,3.227-2.215,4.922c-1.586,1.805-2.898,3.555-3.938,5.25H91.29z"/>
</g>
<rect x="111.222" y="251.533" fill="none" width="13.101" height="19.818"/>
<text transform="matrix(1 0 0 1 111.2219 269.5801)" font-family="'MS-Gothic'" font-size="21">1</text>
<g enable-background="new    ">
	<path fill="#FFFFFF" stroke="#FFFFFF" d="M115.734,269.416v-6.398v-6.316h-2.461v-0.984c1.914,0,3.035-0.766,3.363-2.297h0.984
		v15.996H115.734z"/>
</g>
<rect x="144.914" y="257.527" fill="none" width="13.102" height="19.818"/>
<text transform="matrix(1 0 0 1 144.9138 275.5742)" font-family="'MS-Gothic'" font-size="21">0</text>
<g enable-background="new    ">
	<path fill="#FFFFFF" stroke="#FFFFFF" d="M147.539,260.563c0.766-0.766,1.613-1.148,2.542-1.148c0.93,0,1.777,0.383,2.543,1.148
		c1.313,1.313,1.969,3.582,1.969,6.809c0,3.281-0.656,5.578-1.969,6.891c-0.766,0.766-1.613,1.148-2.543,1.148
		c-0.929,0-1.777-0.383-2.542-1.148c-1.313-1.313-1.969-3.609-1.969-6.891C145.57,264.145,146.226,261.875,147.539,260.563z
		 M151.148,261.465c-0.328-0.328-0.684-0.492-1.066-0.492s-0.738,0.164-1.066,0.492c-1.039,1.094-1.559,3.063-1.559,5.906
		c0,2.953,0.52,4.949,1.559,5.988c0.328,0.328,0.683,0.492,1.066,0.492s0.738-0.164,1.066-0.492
		c1.039-1.039,1.559-3.035,1.559-5.988C152.706,264.473,152.187,262.504,151.148,261.465z"/>
</g>
<rect x="218.841" y="56.829" fill="none" width="26.395" height="30.261"/>
<text transform="matrix(1 0 0 1 218.8391 74.8755)" font-family="'MS-Gothic'" font-size="21">14</text>
<g enable-background="new    ">
	<path fill="#FFFFFF" stroke="#FFFFFF" stroke-width="0.5" d="M223.351,74.711v-6.398v-6.316h-2.461v-0.984
		c1.914,0,3.035-0.766,3.363-2.297h0.984v15.996H223.351z"/>
	<path fill="#FFFFFF" stroke="#FFFFFF" stroke-width="0.5" d="M235.491,74.711v-1.887v-1.887h-5.496v-1.559l5.496-10.664h1.887
		v10.664h1.723v1.559h-1.723v3.773H235.491z M235.491,69.379v-7.219l-3.691,7.219H235.491z"/>
</g>
<rect x="193.607" y="35.66" fill="none" width="26.396" height="30.261"/>
<text transform="matrix(1 0 0 1 193.6067 53.7065)" font-family="'MS-Gothic'" font-size="21">13</text>
<g enable-background="new    ">
	<path fill="#FFFFFF" stroke="#FFFFFF" d="M198.118,53.542v-6.398v-6.316h-2.461v-0.984c1.914,0,3.035-0.766,3.363-2.297h0.984
		v15.996H198.118z"/>
	<path fill="#FFFFFF" stroke="#FFFFFF" d="M207.634,51.41c0.383,0.383,0.902,0.574,1.559,0.574c0.547,0,1.066-0.246,1.559-0.738
		s0.738-1.313,0.738-2.461c0-0.875-0.301-1.613-0.902-2.215c-0.438-0.438-1.094-0.629-1.969-0.574v-1.395
		c0.875-0.055,1.531-0.301,1.969-0.738s0.656-1.094,0.656-1.969c0-1.094-0.246-1.887-0.738-2.379
		c-0.328-0.328-0.738-0.492-1.23-0.492s-0.902,0.164-1.23,0.492c-0.547,0.547-0.848,1.367-0.902,2.461h-1.805
		c0.055-1.422,0.52-2.57,1.395-3.445c0.656-0.656,1.504-0.984,2.543-0.984c1.094,0,1.969,0.328,2.625,0.984
		c0.766,0.766,1.148,1.777,1.148,3.035c0,1.148-0.301,2.023-0.902,2.625c-0.547,0.547-1.066,0.902-1.559,1.066
		c0.711,0.219,1.258,0.52,1.641,0.902c0.766,0.766,1.148,1.695,1.148,2.789c0,1.422-0.438,2.57-1.313,3.445
		c-0.766,0.766-1.723,1.148-2.871,1.148c-1.258,0-2.242-0.355-2.953-1.066c-0.82-0.82-1.23-2.051-1.23-3.691h1.887
		C206.841,49.988,207.087,50.863,207.634,51.41z"/>
</g>
</svg>
